<svg viewBox="0 0 900 480" xmlns="http://www.w3.org/2000/svg" font-family="Inter, system-ui, -apple-system, sans-serif">
  <defs>
    <filter id="shadow" x="-10%" y="-10%" width="120%" height="120%">
      <feDropShadow dx="0" dy="4" stdDeviation="6" flood-opacity="0.08"/>
    </filter>
    <marker id="arrowhead" markerWidth="10" markerHeight="7" refX="10" refY="3.5" orient="auto">
      <polygon points="0 0, 10 3.5, 0 7" fill="#64748b"/>
    </marker>
  </defs>

  <rect width="900" height="480" fill="#f8fafc"/>

  <text x="450" y="45" text-anchor="middle" font-size="22" font-weight="700" fill="#1e293b">Conversation Quality Dimensions</text>
  <text x="450" y="70" text-anchor="middle" font-size="14" fill="#64748b">Evaluating long-range coherence, logic, and focus in multi-turn agents</text>

  <g transform="translate(50, 100)">
    <g filter="url(#shadow)">
      <rect width="200" height="36" rx="8" fill="#475569"/>
      <text x="100" y="22" text-anchor="middle" font-size="11" font-weight="600" fill="white">Turn 1: User Account Inquiry</text>
    </g>
    <g transform="translate(0, 44)" filter="url(#shadow)">
      <rect width="200" height="36" rx="8" fill="white" stroke="#e2e8f0" stroke-width="1.5"/>
      <text x="100" y="22" text-anchor="middle" font-size="11" fill="#475569">Turn 2: Bot Info Response</text>
    </g>
    
    <g transform="translate(0, 88)" filter="url(#shadow)">
      <rect width="200" height="36" rx="8" fill="#475569"/>
      <text x="100" y="22" text-anchor="middle" font-size="11" font-weight="600" fill="white">Turn 3: User references "it"</text>
    </g>
    <g transform="translate(0, 132)" filter="url(#shadow)">
      <rect width="200" height="36" rx="8" fill="white" stroke="#e2e8f0" stroke-width="1.5"/>
      <text x="100" y="22" text-anchor="middle" font-size="11" fill="#475569">Turn 4: Bot resolves "it"</text>
    </g>

    <g transform="translate(0, 176)" filter="url(#shadow)">
      <rect width="200" height="36" rx="8" fill="#475569"/>
      <text x="100" y="22" text-anchor="middle" font-size="11" font-weight="600" fill="white">Turn 5: User Rephrases</text>
    </g>
    <g transform="translate(0, 220)" filter="url(#shadow)">
      <rect width="200" height="36" rx="8" fill="white" stroke="#e2e8f0" stroke-width="1.5"/>
      <text x="100" y="22" text-anchor="middle" font-size="11" fill="#475569">Turn 6: Aligned Response</text>
    </g>

    <g transform="translate(0, 264)" filter="url(#shadow)">
      <rect width="200" height="36" rx="8" fill="#475569"/>
      <text x="100" y="22" text-anchor="middle" font-size="11" font-weight="600" fill="white">Turn 7: Off-topic query</text>
    </g>

    <path d="M 210 18 L 240 18 L 240 150 L 210 150" fill="none" stroke="#3b82f6" stroke-width="2"/>
    <line x1="240" y1="84" x2="280" y2="84" stroke="#3b82f6" stroke-width="2" marker-end="url(#arrowhead)"/>

    <path d="M 210 194 L 240 194 L 240 238 L 210 238" fill="none" stroke="#10b981" stroke-width="2"/>
    <line x1="240" y1="200" x2="280" y2="200" stroke="#10b981" stroke-width="2" marker-end="url(#arrowhead)"/>

    <line x1="210" y1="282" x2="280" y2="282" stroke="#f59e0b" stroke-width="2" marker-end="url(#arrowhead)"/>
  </g>

  <g transform="translate(330, 100)">
    <g transform="translate(0, 36)" filter="url(#shadow)">
      <rect width="240" height="90" rx="12" fill="white" stroke="#3b82f6" stroke-width="1.5"/>
      <text x="20" y="30" font-size="13" font-weight="700" fill="#1d4ed8">CONTEXT RETENTION</text>
      <text x="20" y="52" font-size="12" fill="#475569">Long-term memory &amp; resolution</text>
      <rect x="20" y="62" width="200" height="18" rx="4" fill="#0f172a"/>
      <text x="30" y="75" font-family="monospace" font-size="10" fill="#a78bfa">@fe.context_retention<tspan fill="#f8fafc">(0.8)</tspan></text>
    </g>

    <g transform="translate(0, 155)" filter="url(#shadow)">
      <rect width="240" height="90" rx="12" fill="white" stroke="#10b981" stroke-width="1.5"/>
      <text x="20" y="30" font-size="13" font-weight="700" fill="#047857">CONSISTENCY</text>
      <text x="20" y="52" font-size="12" fill="#475569">Avoidance of contradictions</text>
      <rect x="20" y="62" width="200" height="18" rx="4" fill="#0f172a"/>
      <text x="30" y="75" font-family="monospace" font-size="10" fill="#10b981">@fe.consistency<tspan fill="#f8fafc">(0.9)</tspan></text>
    </g>

    <g transform="translate(0, 250)" filter="url(#shadow)">
      <rect width="240" height="60" rx="12" fill="white" stroke="#f59e0b" stroke-width="1.5"/>
      <text x="20" y="25" font-size="13" font-weight="700" fill="#b45309">TOPIC DRIFT</text>
      <rect x="20" y="34" width="200" height="18" rx="4" fill="#0f172a"/>
      <text x="30" y="47" font-family="monospace" font-size="10" fill="#fbbf24">@fe.topic_drift<tspan fill="#f8fafc">(0.85)</tspan></text>
    </g>
  </g>

  <g transform="translate(610, 100)" filter="url(#shadow)">
    <rect width="240" height="300" rx="12" fill="white" stroke="#e2e8f0" stroke-width="1.5"/>
    <text x="120" y="30" text-anchor="middle" font-size="13" font-weight="700" fill="#1e293b">METRIC SUMMARY</text>
    <line x1="20" y1="40" x2="220" y2="40" stroke="#f1f5f9" stroke-width="2"/>

    <g transform="translate(20, 60)">
      <circle r="6" fill="#3b82f6"/>
      <text x="15" y="4" font-size="12" font-weight="600" fill="#1e293b">Context Retention</text>
      <text x="15" y="20" font-size="11" fill="#64748b">Remembers user intent turns</text>
    </g>
    <g transform="translate(20, 120)">
      <circle r="6" fill="#10b981"/>
      <text x="15" y="4" font-size="12" font-weight="600" fill="#1e293b">Consistency</text>
      <text x="15" y="20" font-size="11" fill="#64748b">Verified non-contradiction</text>
    </g>
    <g transform="translate(20, 180)">
      <circle r="6" fill="#f59e0b"/>
      <text x="15" y="4" font-size="12" font-weight="600" fill="#1e293b">Topic Drift</text>
      <text x="15" y="20" font-size="11" fill="#64748b">Detects task divergence</text>
    </g>

    <rect x="15" y="235" width="210" height="50" rx="8" fill="#f8fafc" stroke="#e2e8f0"/>
    <text x="120" y="255" text-anchor="middle" font-size="10" font-weight="700" fill="#64748b">ARCHITECTURAL TIP</text>
    <text x="120" y="272" text-anchor="middle" font-size="10" fill="#94a3b8">Stack all three for full QA.</text>
  </g>

  <text x="450" y="468" text-anchor="middle" font-size="11" fill="#94a3b8">fasteval • Multi-turn conversation evaluation standards • 2026</text>
</svg>
