<svg viewBox="0 0 800 350" xmlns="http://www.w3.org/2000/svg" font-family="system-ui, -apple-system, sans-serif">
  <defs>
    <linearGradient id="cssExcellentGrad" x1="0%" y1="0%" x2="100%" y2="0%">
      <stop offset="0%" style="stop-color:#22c55e"/>
      <stop offset="100%" style="stop-color:#16a34a"/>
    </linearGradient>
    <linearGradient id="cssGoodGrad" x1="0%" y1="0%" x2="100%" y2="0%">
      <stop offset="0%" style="stop-color:#84cc16"/>
      <stop offset="100%" style="stop-color:#65a30d"/>
    </linearGradient>
    <linearGradient id="cssPartialGrad" x1="0%" y1="0%" x2="100%" y2="0%">
      <stop offset="0%" style="stop-color:#f59e0b"/>
      <stop offset="100%" style="stop-color:#d97706"/>
    </linearGradient>
    <linearGradient id="cssPoorGrad" x1="0%" y1="0%" x2="100%" y2="0%">
      <stop offset="0%" style="stop-color:#ef4444"/>
      <stop offset="100%" style="stop-color:#dc2626"/>
    </linearGradient>
    <filter id="cssShadow" x="-20%" y="-20%" width="140%" height="140%">
      <feDropShadow dx="0" dy="4" stdDeviation="5" flood-opacity="0.12"/>
    </filter>
  </defs>
  
  <!-- Background -->
  <rect width="800" height="350" fill="#f8fafc"/>
  
  <!-- Title -->
  <text x="400" y="32" text-anchor="middle" font-size="22" font-weight="700" fill="#1e293b">Correctness Scoring Scale</text>
  <text x="400" y="52" text-anchor="middle" font-size="12" fill="#64748b">How the LLM judge evaluates semantic correctness (0.0 - 1.0)</text>
  
  <!-- Score bar -->
  <g transform="translate(50, 85)">
    <!-- Background bar -->
    <rect x="0" y="0" width="700" height="50" rx="8" fill="#e2e8f0"/>
    
    <!-- Colored segments -->
    <rect x="0" y="0" width="175" height="50" rx="8" fill="url(#cssPoorGrad)"/>
    <rect x="175" y="0" width="175" height="50" fill="url(#cssPartialGrad)"/>
    <rect x="350" y="0" width="175" height="50" fill="url(#cssGoodGrad)"/>
    <rect x="525" y="0" width="175" height="50" rx="8" fill="url(#cssExcellentGrad)"/>
    <!-- Fix corner on left side of gradient -->
    <rect x="0" y="0" width="10" height="50" fill="url(#cssPoorGrad)"/>
    
    <!-- Score labels -->
    <text x="0" y="70" font-size="11" font-weight="600" fill="#64748b">0.0</text>
    <text x="175" y="70" font-size="11" font-weight="600" fill="#64748b">0.5</text>
    <text x="350" y="70" font-size="11" font-weight="600" fill="#64748b">0.7</text>
    <text x="525" y="70" font-size="11" font-weight="600" fill="#64748b">0.9</text>
    <text x="692" y="70" font-size="11" font-weight="600" fill="#64748b">1.0</text>
    
    <!-- Segment labels -->
    <text x="87" y="30" text-anchor="middle" font-size="11" font-weight="700" fill="white">POOR</text>
    <text x="262" y="30" text-anchor="middle" font-size="11" font-weight="700" fill="white">PARTIAL</text>
    <text x="437" y="30" text-anchor="middle" font-size="11" font-weight="700" fill="white">GOOD</text>
    <text x="612" y="30" text-anchor="middle" font-size="11" font-weight="700" fill="white">EXCELLENT</text>
  </g>
  
  <!-- Description cards -->
  <g transform="translate(50, 175)">
    <!-- Poor -->
    <g filter="url(#cssShadow)">
      <rect x="0" y="0" width="165" height="100" rx="8" fill="white" stroke="#ef4444" stroke-width="2"/>
      <rect x="0" y="0" width="165" height="28" rx="8" fill="#fef2f2"/>
      <rect x="0" y="16" width="165" height="12" fill="#fef2f2"/>
      <text x="82" y="20" text-anchor="middle" font-size="11" font-weight="600" fill="#dc2626">0.0 - 0.5</text>
      <text x="10" y="48" font-size="9" fill="#475569">Wrong answer or</text>
      <text x="10" y="62" font-size="9" fill="#475569">unrelated response</text>
      <text x="10" y="85" font-size="8" fill="#64748b" font-style="italic">"Paris" vs "Tokyo"</text>
    </g>
    
    <!-- Partial -->
    <g filter="url(#cssShadow)">
      <rect x="180" y="0" width="165" height="100" rx="8" fill="white" stroke="#f59e0b" stroke-width="2"/>
      <rect x="180" y="0" width="165" height="28" rx="8" fill="#fef3c7"/>
      <rect x="180" y="16" width="165" height="12" fill="#fef3c7"/>
      <text x="262" y="20" text-anchor="middle" font-size="11" font-weight="600" fill="#d97706">0.5 - 0.7</text>
      <text x="190" y="48" font-size="9" fill="#475569">Partially correct,</text>
      <text x="190" y="62" font-size="9" fill="#475569">some info missing</text>
      <text x="190" y="85" font-size="8" fill="#64748b" font-style="italic">"1991" vs "1991 by Guido"</text>
    </g>
    
    <!-- Good -->
    <g filter="url(#cssShadow)">
      <rect x="360" y="0" width="165" height="100" rx="8" fill="white" stroke="#84cc16" stroke-width="2"/>
      <rect x="360" y="0" width="165" height="28" rx="8" fill="#ecfccb"/>
      <rect x="360" y="16" width="165" height="12" fill="#ecfccb"/>
      <text x="442" y="20" text-anchor="middle" font-size="11" font-weight="600" fill="#65a30d">0.7 - 0.9</text>
      <text x="370" y="48" font-size="9" fill="#475569">Correct with extra</text>
      <text x="370" y="62" font-size="9" fill="#475569">or different wording</text>
      <text x="370" y="85" font-size="8" fill="#64748b" font-style="italic">Right answer + context</text>
    </g>
    
    <!-- Excellent -->
    <g filter="url(#cssShadow)">
      <rect x="540" y="0" width="160" height="100" rx="8" fill="white" stroke="#22c55e" stroke-width="2"/>
      <rect x="540" y="0" width="160" height="28" rx="8" fill="#dcfce7"/>
      <rect x="540" y="16" width="160" height="12" fill="#dcfce7"/>
      <text x="620" y="20" text-anchor="middle" font-size="11" font-weight="600" fill="#16a34a">0.9 - 1.0</text>
      <text x="550" y="48" font-size="9" fill="#475569">Perfect or near-</text>
      <text x="550" y="62" font-size="9" fill="#475569">perfect match</text>
      <text x="550" y="85" font-size="8" fill="#64748b" font-style="italic">Exactly as expected</text>
    </g>
  </g>
  
  <!-- Threshold recommendations -->
  <g transform="translate(50, 295)">
    <rect x="0" y="0" width="700" height="45" rx="8" fill="#f1f5f9" stroke="#e2e8f0"/>
    <text x="350" y="18" text-anchor="middle" font-size="11" font-weight="600" fill="#475569">Recommended Thresholds</text>
    <text x="100" y="36" text-anchor="middle" font-size="10" fill="#64748b">Development: <tspan fill="#3b82f6" font-weight="600">0.6-0.7</tspan></text>
    <text x="290" y="36" text-anchor="middle" font-size="10" fill="#64748b">Testing: <tspan fill="#8b5cf6" font-weight="600">0.7-0.8</tspan></text>
    <text x="470" y="36" text-anchor="middle" font-size="10" fill="#64748b">Production: <tspan fill="#10b981" font-weight="600">0.8-0.9</tspan></text>
    <text x="620" y="36" text-anchor="middle" font-size="10" fill="#64748b">Critical: <tspan fill="#ef4444" font-weight="600">0.9+</tspan></text>
  </g>
  
  <!-- Footer -->
  <text x="400" y="345" text-anchor="middle" font-size="11" fill="#94a3b8">fasteval • Correctness Metric Scoring</text>
</svg>