<svg viewBox="0 0 800 420" xmlns="http://www.w3.org/2000/svg" font-family="system-ui, -apple-system, sans-serif">
  <defs>
    <linearGradient id="cmaBaseGrad" x1="0%" y1="0%" x2="100%" y2="100%">
      <stop offset="0%" style="stop-color:#6366f1"/>
      <stop offset="100%" style="stop-color:#4f46e5"/>
    </linearGradient>
    <linearGradient id="cmaLLMGrad" x1="0%" y1="0%" x2="100%" y2="100%">
      <stop offset="0%" style="stop-color:#8b5cf6"/>
      <stop offset="100%" style="stop-color:#6d28d9"/>
    </linearGradient>
    <linearGradient id="cmaDetGrad" x1="0%" y1="0%" x2="100%" y2="100%">
      <stop offset="0%" style="stop-color:#10b981"/>
      <stop offset="100%" style="stop-color:#059669"/>
    </linearGradient>
    <linearGradient id="cmaCustomGrad" x1="0%" y1="0%" x2="100%" y2="100%">
      <stop offset="0%" style="stop-color:#f59e0b"/>
      <stop offset="100%" style="stop-color:#d97706"/>
    </linearGradient>
    <filter id="cmaShadow" x="-20%" y="-20%" width="140%" height="140%">
      <feDropShadow dx="0" dy="4" stdDeviation="5" flood-opacity="0.12"/>
    </filter>
    <marker id="cmaArrow" markerWidth="10" markerHeight="7" refX="9" refY="3.5" orient="auto">
      <polygon points="0 0, 10 3.5, 0 7" fill="#64748b"/>
    </marker>
  </defs>
  
  <!-- Background -->
  <rect width="800" height="420" fill="#f8fafc"/>
  
  <!-- Title -->
  <text x="400" y="32" text-anchor="middle" font-size="22" font-weight="700" fill="#1e293b">Custom Metric Architecture</text>
  <text x="400" y="52" text-anchor="middle" font-size="12" fill="#64748b">Class hierarchy for building your own evaluation metrics</text>
  
  <!-- Base class (top) -->
  <g filter="url(#cmaShadow)" transform="translate(300, 75)">
    <rect x="0" y="0" width="200" height="70" rx="10" fill="url(#cmaBaseGrad)"/>
    <text x="100" y="28" text-anchor="middle" font-size="14" font-weight="700" fill="white">BaseMetric</text>
    <text x="100" y="48" text-anchor="middle" font-size="10" fill="rgba(255,255,255,0.85)">Abstract base class</text>
    <text x="100" y="62" text-anchor="middle" font-size="9" fill="rgba(255,255,255,0.7)">name, threshold, weight</text>
  </g>
  
  <!-- Inheritance arrows -->
  <line x1="350" y1="145" x2="200" y2="185" stroke="#64748b" stroke-width="2" marker-end="url(#cmaArrow)"/>
  <line x1="450" y1="145" x2="600" y2="185" stroke="#64748b" stroke-width="2" marker-end="url(#cmaArrow)"/>
  
  <!-- BaseLLMMetric (left branch) -->
  <g filter="url(#cmaShadow)" transform="translate(50, 195)">
    <rect x="0" y="0" width="280" height="130" rx="10" fill="white" stroke="#8b5cf6" stroke-width="2"/>
    <rect x="0" y="0" width="280" height="40" rx="10" fill="url(#cmaLLMGrad)"/>
    <rect x="0" y="28" width="280" height="12" fill="url(#cmaLLMGrad)"/>
    <text x="140" y="28" text-anchor="middle" font-size="13" font-weight="700" fill="white">BaseLLMMetric</text>
    
    <text x="15" y="60" font-size="10" font-weight="600" fill="#6d28d9">Implement:</text>
    <text x="25" y="78" font-size="9" fill="#475569" font-family="monospace">get_evaluation_prompt()</text>
    
    <text x="15" y="98" font-size="10" font-weight="600" fill="#6d28d9">Returns:</text>
    <text x="25" y="116" font-size="9" fill="#475569">JSON {score: 0.0-1.0, reasoning: "..."}</text>
    
    <rect x="160" y="55" width="105" height="65" rx="6" fill="#ede9fe"/>
    <text x="212" y="72" text-anchor="middle" font-size="9" font-weight="600" fill="#6d28d9">~1-3 seconds</text>
    <text x="212" y="88" text-anchor="middle" font-size="8" fill="#475569">LLM call per eval</text>
    <text x="212" y="102" text-anchor="middle" font-size="8" fill="#475569">Semantic analysis</text>
    <text x="212" y="115" text-anchor="middle" font-size="8" fill="#475569">Complex criteria</text>
  </g>
  
  <!-- BaseDeterministicMetric (right branch) -->
  <g filter="url(#cmaShadow)" transform="translate(470, 195)">
    <rect x="0" y="0" width="280" height="130" rx="10" fill="white" stroke="#10b981" stroke-width="2"/>
    <rect x="0" y="0" width="280" height="40" rx="10" fill="url(#cmaDetGrad)"/>
    <rect x="0" y="28" width="280" height="12" fill="url(#cmaDetGrad)"/>
    <text x="140" y="28" text-anchor="middle" font-size="13" font-weight="700" fill="white">BaseDeterministicMetric</text>
    
    <text x="15" y="60" font-size="10" font-weight="600" fill="#059669">Implement:</text>
    <text x="25" y="78" font-size="9" fill="#475569" font-family="monospace">evaluate(eval_input)</text>
    
    <text x="15" y="98" font-size="10" font-weight="600" fill="#059669">Returns:</text>
    <text x="25" y="116" font-size="9" fill="#475569">MetricResult(score, reasoning)</text>
    
    <rect x="160" y="55" width="105" height="65" rx="6" fill="#dcfce7"/>
    <text x="212" y="72" text-anchor="middle" font-size="9" font-weight="600" fill="#059669">Instant ⚡</text>
    <text x="212" y="88" text-anchor="middle" font-size="8" fill="#475569">No LLM calls</text>
    <text x="212" y="102" text-anchor="middle" font-size="8" fill="#475569">String matching</text>
    <text x="212" y="115" text-anchor="middle" font-size="8" fill="#475569">Rule-based logic</text>
  </g>
  
  <!-- Inheritance arrows to custom -->
  <line x1="190" y1="325" x2="190" y2="350" stroke="#64748b" stroke-width="2" marker-end="url(#cmaArrow)"/>
  <line x1="610" y1="325" x2="610" y2="350" stroke="#64748b" stroke-width="2" marker-end="url(#cmaArrow)"/>
  
  <!-- Custom implementations -->
  <g filter="url(#cmaShadow)" transform="translate(70, 360)">
    <rect x="0" y="0" width="240" height="45" rx="8" fill="url(#cmaCustomGrad)"/>
    <text x="120" y="20" text-anchor="middle" font-size="11" font-weight="600" fill="white">Your Custom LLM Metrics</text>
    <text x="120" y="36" text-anchor="middle" font-size="9" fill="rgba(255,255,255,0.85)">ToneMetric, MedicalAccuracyMetric</text>
  </g>
  
  <g filter="url(#cmaShadow)" transform="translate(490, 360)">
    <rect x="0" y="0" width="240" height="45" rx="8" fill="url(#cmaCustomGrad)"/>
    <text x="120" y="20" text-anchor="middle" font-size="11" font-weight="600" fill="white">Your Custom Det. Metrics</text>
    <text x="120" y="36" text-anchor="middle" font-size="9" fill="rgba(255,255,255,0.85)">ResponseLengthMetric, KeywordsMetric</text>
  </g>
  
  <!-- Usage hint -->
  <g transform="translate(340, 340)">
    <rect x="0" y="0" width="120" height="30" rx="6" fill="#f1f5f9" stroke="#e2e8f0"/>
    <text x="60" y="19" text-anchor="middle" font-size="9" fill="#475569">@fe.metric(MyMetric())</text>
  </g>
  
  <!-- Footer -->
  <text x="400" y="415" text-anchor="middle" font-size="11" fill="#94a3b8">fasteval • Custom Metric Class Hierarchy</text>
</svg>