<svg viewBox="0 0 800 420" xmlns="http://www.w3.org/2000/svg" font-family="system-ui, -apple-system, sans-serif">
  <defs>
    <linearGradient id="ersMainGrad" x1="0%" y1="0%" x2="100%" y2="100%">
      <stop offset="0%" style="stop-color:#6366f1"/>
      <stop offset="100%" style="stop-color:#4f46e5"/>
    </linearGradient>
    <linearGradient id="ersMetricGrad" x1="0%" y1="0%" x2="100%" y2="100%">
      <stop offset="0%" style="stop-color:#10b981"/>
      <stop offset="100%" style="stop-color:#059669"/>
    </linearGradient>
    <linearGradient id="ersInputGrad" x1="0%" y1="0%" x2="100%" y2="100%">
      <stop offset="0%" style="stop-color:#8b5cf6"/>
      <stop offset="100%" style="stop-color:#6d28d9"/>
    </linearGradient>
    <filter id="ersShadow" x="-20%" y="-20%" width="140%" height="140%">
      <feDropShadow dx="0" dy="4" stdDeviation="6" flood-opacity="0.12"/>
    </filter>
    <marker id="ersArrow" markerWidth="10" markerHeight="7" refX="9" refY="3.5" orient="auto">
      <polygon points="0 0, 10 3.5, 0 7" fill="#64748b"/>
    </marker>
  </defs>
  
  <!-- Background -->
  <rect width="800" height="420" fill="#f8fafc"/>
  
  <!-- Title -->
  <text x="400" y="35" text-anchor="middle" font-size="22" font-weight="700" fill="#1e293b">EvalResult Object Structure</text>
  <text x="400" y="55" text-anchor="middle" font-size="12" fill="#64748b">What fe.score() returns for inspection and assertions</text>
  
  <!-- Main EvalResult box -->
  <g filter="url(#ersShadow)">
    <rect x="40" y="80" width="320" height="280" rx="12" fill="white" stroke="#6366f1" stroke-width="2"/>
    
    <!-- Header -->
    <rect x="40" y="80" width="320" height="45" rx="12" fill="url(#ersMainGrad)"/>
    <rect x="40" y="113" width="320" height="12" fill="url(#ersMainGrad)"/>
    <text x="200" y="108" text-anchor="middle" font-size="16" font-weight="700" fill="white">EvalResult</text>
    
    <!-- Properties -->
    <g transform="translate(55, 145)">
      <!-- passed -->
      <rect x="0" y="0" width="290" height="32" rx="6" fill="#f1f5f9"/>
      <text x="10" y="21" font-size="11" font-weight="600" fill="#4f46e5">passed</text>
      <text x="75" y="21" font-size="11" fill="#475569">: bool</text>
      <text x="290" y="21" text-anchor="end" font-size="10" fill="#64748b" font-style="italic">True if all metrics pass</text>
      
      <!-- aggregate_score -->
      <rect x="0" y="42" width="290" height="32" rx="6" fill="#f1f5f9"/>
      <text x="10" y="63" font-size="11" font-weight="600" fill="#4f46e5">aggregate_score</text>
      <text x="115" y="63" font-size="11" fill="#475569">: float</text>
      <text x="290" y="63" text-anchor="end" font-size="10" fill="#64748b" font-style="italic">0.0 - 1.0 weighted avg</text>
      
      <!-- metric_results -->
      <rect x="0" y="84" width="290" height="32" rx="6" fill="#dcfce7" stroke="#10b981" stroke-width="1"/>
      <text x="10" y="105" font-size="11" font-weight="600" fill="#059669">metric_results</text>
      <text x="105" y="105" font-size="11" fill="#475569">: List[MetricResult]</text>
      
      <!-- eval_input -->
      <rect x="0" y="126" width="290" height="32" rx="6" fill="#ede9fe" stroke="#8b5cf6" stroke-width="1"/>
      <text x="10" y="147" font-size="11" font-weight="600" fill="#6d28d9">eval_input</text>
      <text x="80" y="147" font-size="11" fill="#475569">: EvalInput</text>
    </g>
    
    <!-- Methods section -->
    <line x1="55" y1="320" x2="345" y2="320" stroke="#e2e8f0" stroke-width="1"/>
    <text x="200" y="340" text-anchor="middle" font-size="10" fill="#64748b">Access via: result = fe.score(...)</text>
  </g>
  
  <!-- Arrow to MetricResult -->
  <line x1="360" y1="228" x2="420" y2="180" stroke="#10b981" stroke-width="2" marker-end="url(#ersArrow)"/>
  
  <!-- MetricResult box -->
  <g filter="url(#ersShadow)">
    <rect x="430" y="80" width="340" height="200" rx="12" fill="white" stroke="#10b981" stroke-width="2"/>
    
    <!-- Header -->
    <rect x="430" y="80" width="340" height="40" rx="12" fill="url(#ersMetricGrad)"/>
    <rect x="430" y="108" width="340" height="12" fill="url(#ersMetricGrad)"/>
    <text x="600" y="105" text-anchor="middle" font-size="14" font-weight="700" fill="white">MetricResult</text>
    
    <!-- Properties -->
    <g transform="translate(445, 135)">
      <rect x="0" y="0" width="310" height="26" rx="5" fill="#f1f5f9"/>
      <text x="10" y="18" font-size="10" font-weight="600" fill="#059669">metric_name</text>
      <text x="90" y="18" font-size="10" fill="#475569">: str</text>
      <text x="310" y="18" text-anchor="end" font-size="9" fill="#64748b">"correctness"</text>
      
      <rect x="0" y="32" width="310" height="26" rx="5" fill="#f1f5f9"/>
      <text x="10" y="50" font-size="10" font-weight="600" fill="#059669">score</text>
      <text x="50" y="50" font-size="10" fill="#475569">: float</text>
      <text x="310" y="50" text-anchor="end" font-size="9" fill="#64748b">0.0 - 1.0</text>
      
      <rect x="0" y="64" width="310" height="26" rx="5" fill="#f1f5f9"/>
      <text x="10" y="82" font-size="10" font-weight="600" fill="#059669">passed</text>
      <text x="55" y="82" font-size="10" fill="#475569">: bool</text>
      <text x="310" y="82" text-anchor="end" font-size="9" fill="#64748b">score ≥ threshold</text>
      
      <rect x="0" y="96" width="310" height="26" rx="5" fill="#f1f5f9"/>
      <text x="10" y="114" font-size="10" font-weight="600" fill="#059669">threshold</text>
      <text x="75" y="114" font-size="10" fill="#475569">: float</text>
      <text x="310" y="114" text-anchor="end" font-size="9" fill="#64748b">configured min</text>
      
      <rect x="0" y="128" width="310" height="26" rx="5" fill="#f1f5f9"/>
      <text x="10" y="146" font-size="10" font-weight="600" fill="#059669">reasoning</text>
      <text x="75" y="146" font-size="10" fill="#475569">: str</text>
      <text x="310" y="146" text-anchor="end" font-size="9" fill="#64748b">LLM explanation</text>
    </g>
  </g>
  
  <!-- Arrow to EvalInput -->
  <line x1="360" y1="270" x2="420" y2="320" stroke="#8b5cf6" stroke-width="2" marker-end="url(#ersArrow)"/>
  
  <!-- EvalInput box -->
  <g filter="url(#ersShadow)">
    <rect x="430" y="290" width="340" height="115" rx="12" fill="white" stroke="#8b5cf6" stroke-width="2"/>
    
    <!-- Header -->
    <rect x="430" y="290" width="340" height="35" rx="12" fill="url(#ersInputGrad)"/>
    <rect x="430" y="313" width="340" height="12" fill="url(#ersInputGrad)"/>
    <text x="600" y="313" text-anchor="middle" font-size="14" font-weight="700" fill="white">EvalInput</text>
    
    <!-- Properties -->
    <g transform="translate(445, 340)">
      <text x="0" y="12" font-size="10" fill="#475569">
        <tspan font-weight="600" fill="#6d28d9">actual_output</tspan>: str • 
        <tspan font-weight="600" fill="#6d28d9">expected_output</tspan>: str
      </text>
      <text x="0" y="32" font-size="10" fill="#475569">
        <tspan font-weight="600" fill="#6d28d9">input</tspan>: str • 
        <tspan font-weight="600" fill="#6d28d9">context</tspan>: List[str]
      </text>
      <text x="0" y="52" font-size="10" fill="#64748b" font-style="italic">The data used for evaluation</text>
    </g>
  </g>
  
  <!-- Usage example at bottom -->
  <text x="400" y="415" text-anchor="middle" font-size="11" fill="#94a3b8">fasteval • EvalResult and MetricResult Data Structures</text>
</svg>