<svg viewBox="0 0 800 420" xmlns="http://www.w3.org/2000/svg" font-family="system-ui, -apple-system, sans-serif">
  <defs>
    <linearGradient id="fccResponseGrad" x1="0%" y1="0%" x2="100%" y2="100%">
      <stop offset="0%" style="stop-color:#8b5cf6"/>
      <stop offset="100%" style="stop-color:#6d28d9"/>
    </linearGradient>
    <linearGradient id="fccExtractGrad" x1="0%" y1="0%" x2="100%" y2="100%">
      <stop offset="0%" style="stop-color:#3b82f6"/>
      <stop offset="100%" style="stop-color:#1d4ed8"/>
    </linearGradient>
    <linearGradient id="fccContextGrad" x1="0%" y1="0%" x2="100%" y2="100%">
      <stop offset="0%" style="stop-color:#f59e0b"/>
      <stop offset="100%" style="stop-color:#d97706"/>
    </linearGradient>
    <linearGradient id="fccCheckGrad" x1="0%" y1="0%" x2="100%" y2="100%">
      <stop offset="0%" style="stop-color:#6366f1"/>
      <stop offset="100%" style="stop-color:#4f46e5"/>
    </linearGradient>
    <linearGradient id="fccScoreGrad" x1="0%" y1="0%" x2="100%" y2="100%">
      <stop offset="0%" style="stop-color:#10b981"/>
      <stop offset="100%" style="stop-color:#059669"/>
    </linearGradient>
    <filter id="fccShadow" x="-20%" y="-20%" width="140%" height="140%">
      <feDropShadow dx="0" dy="4" stdDeviation="5" flood-opacity="0.12"/>
    </filter>
    <marker id="fccArrow" markerWidth="10" markerHeight="7" refX="9" refY="3.5" orient="auto">
      <polygon points="0 0, 10 3.5, 0 7" fill="#64748b"/>
    </marker>
  </defs>
  
  <!-- Background -->
  <rect width="800" height="420" fill="#f8fafc"/>
  
  <!-- Title -->
  <text x="400" y="32" text-anchor="middle" font-size="22" font-weight="700" fill="#1e293b">Faithfulness Claim Checking</text>
  <text x="400" y="52" text-anchor="middle" font-size="12" fill="#64748b">How the metric verifies claims against retrieved context</text>
  
  <!-- Step 1: LLM Response -->
  <g filter="url(#fccShadow)">
    <rect x="30" y="75" width="200" height="100" rx="10" fill="white" stroke="#8b5cf6" stroke-width="2"/>
    <rect x="30" y="75" width="200" height="35" rx="10" fill="url(#fccResponseGrad)"/>
    <rect x="30" y="98" width="200" height="12" fill="url(#fccResponseGrad)"/>
    <text x="130" y="98" text-anchor="middle" font-size="11" font-weight="600" fill="white">LLM Response</text>
    
    <text x="45" y="130" font-size="9" fill="#475569">"Returns are accepted within</text>
    <text x="45" y="145" font-size="9" fill="#475569">30 days. Free return shipping</text>
    <text x="45" y="160" font-size="9" fill="#475569">is included for all orders."</text>
  </g>
  
  <!-- Arrow 1 -->
  <line x1="230" y1="125" x2="265" y2="125" stroke="#64748b" stroke-width="2" marker-end="url(#fccArrow)"/>
  
  <!-- Step 2: Extract Claims -->
  <g filter="url(#fccShadow)">
    <rect x="275" y="75" width="200" height="100" rx="10" fill="url(#fccExtractGrad)"/>
    <text x="375" y="98" text-anchor="middle" font-size="11" font-weight="600" fill="white">Extract Claims</text>
    
    <rect x="290" y="110" width="170" height="22" rx="4" fill="rgba(255,255,255,0.2)"/>
    <text x="375" y="125" text-anchor="middle" font-size="9" fill="white">1. "Returns within 30 days"</text>
    
    <rect x="290" y="137" width="170" height="22" rx="4" fill="rgba(255,255,255,0.2)"/>
    <text x="375" y="152" text-anchor="middle" font-size="9" fill="white">2. "Free return shipping"</text>
  </g>
  
  <!-- Arrow 2 -->
  <line x1="475" y1="125" x2="510" y2="125" stroke="#64748b" stroke-width="2" marker-end="url(#fccArrow)"/>
  
  <!-- Step 3: Retrieved Context -->
  <g filter="url(#fccShadow)">
    <rect x="520" y="75" width="250" height="100" rx="10" fill="white" stroke="#f59e0b" stroke-width="2"/>
    <rect x="520" y="75" width="250" height="35" rx="10" fill="url(#fccContextGrad)"/>
    <rect x="520" y="98" width="250" height="12" fill="url(#fccContextGrad)"/>
    <text x="645" y="98" text-anchor="middle" font-size="11" font-weight="600" fill="white">Retrieved Context</text>
    
    <text x="535" y="130" font-size="9" fill="#475569">"Our return policy allows returns</text>
    <text x="535" y="145" font-size="9" fill="#475569">within 30 days of purchase. Items</text>
    <text x="535" y="160" font-size="9" fill="#475569">must be in original packaging."</text>
  </g>
  
  <!-- Arrow down to checking -->
  <line x1="375" y1="175" x2="375" y2="210" stroke="#64748b" stroke-width="2" marker-end="url(#fccArrow)"/>
  <line x1="645" y1="175" x2="645" y2="195" stroke="#64748b" stroke-width="2"/>
  <line x1="645" y1="195" x2="500" y2="195" stroke="#64748b" stroke-width="2"/>
  <line x1="500" y1="195" x2="500" y2="230" stroke="#64748b" stroke-width="2" marker-end="url(#fccArrow)"/>
  
  <!-- Step 4: Check Each Claim -->
  <g filter="url(#fccShadow)">
    <rect x="175" y="220" width="450" height="110" rx="10" fill="url(#fccCheckGrad)"/>
    <text x="400" y="245" text-anchor="middle" font-size="12" font-weight="600" fill="white">Check Each Claim Against Context</text>
    
    <!-- Claim 1: Supported -->
    <rect x="195" y="260" width="200" height="55" rx="6" fill="rgba(255,255,255,0.15)"/>
    <text x="295" y="280" text-anchor="middle" font-size="10" font-weight="600" fill="white">"Returns within 30 days"</text>
    <rect x="215" y="290" width="160" height="18" rx="4" fill="#22c55e"/>
    <text x="295" y="303" text-anchor="middle" font-size="9" font-weight="600" fill="white">SUPPORTED</text>
    
    <!-- Claim 2: Not Supported -->
    <rect x="405" y="260" width="200" height="55" rx="6" fill="rgba(255,255,255,0.15)"/>
    <text x="505" y="280" text-anchor="middle" font-size="10" font-weight="600" fill="white">"Free return shipping"</text>
    <rect x="425" y="290" width="160" height="18" rx="4" fill="#ef4444"/>
    <text x="505" y="303" text-anchor="middle" font-size="9" font-weight="600" fill="white">NOT IN CONTEXT</text>
  </g>
  
  <!-- Arrow to score -->
  <line x1="400" y1="330" x2="400" y2="355" stroke="#64748b" stroke-width="2" marker-end="url(#fccArrow)"/>
  
  <!-- Step 5: Calculate Score -->
  <g filter="url(#fccShadow)">
    <rect x="250" y="365" width="300" height="45" rx="10" fill="url(#fccScoreGrad)"/>
    <text x="400" y="385" text-anchor="middle" font-size="12" font-weight="600" fill="white">Score = Supported / Total = 1/2 = 0.50</text>
    <text x="400" y="402" text-anchor="middle" font-size="10" fill="rgba(255,255,255,0.85)">Below 0.85 threshold - FAIL</text>
  </g>
  
  <!-- Formula sidebar -->
  <g transform="translate(30, 220)">
    <rect x="0" y="0" width="130" height="110" rx="8" fill="#f1f5f9" stroke="#e2e8f0"/>
    <text x="65" y="20" text-anchor="middle" font-size="10" font-weight="600" fill="#475569">Score Formula</text>
    <text x="65" y="45" text-anchor="middle" font-size="12" font-weight="700" fill="#6366f1">supported</text>
    <line x1="25" y1="52" x2="105" y2="52" stroke="#475569" stroke-width="1"/>
    <text x="65" y="70" text-anchor="middle" font-size="12" font-weight="700" fill="#6366f1">total claims</text>
    <text x="65" y="95" text-anchor="middle" font-size="9" fill="#64748b" font-style="italic">0.0 - 1.0 scale</text>
  </g>
  
  <!-- Key insight -->
  <g transform="translate(570, 365)">
    <rect x="0" y="0" width="200" height="45" rx="8" fill="#fef3c7" stroke="#f59e0b"/>
    <text x="100" y="18" text-anchor="middle" font-size="9" font-weight="600" fill="#92400e">Key Insight</text>
    <text x="100" y="35" text-anchor="middle" font-size="8" fill="#78350f">Unsupported claim = hallucination</text>
  </g>
  
  <!-- Footer -->
  <text x="400" y="415" text-anchor="middle" font-size="11" fill="#94a3b8">fasteval • Faithfulness Metric (RAG Grounding)</text>
</svg>