<svg viewBox="0 0 900 480" xmlns="http://www.w3.org/2000/svg" font-family="Inter, system-ui, -apple-system, sans-serif">
  <defs>
    <filter id="shadow" x="-10%" y="-10%" width="120%" height="120%">
      <feDropShadow dx="0" dy="4" stdDeviation="6" flood-opacity="0.08"/>
    </filter>
    <marker id="arrowhead" markerWidth="10" markerHeight="7" refX="10" refY="3.5" orient="auto">
      <polygon points="0 0, 10 3.5, 0 7" fill="#64748b"/>
    </marker>
  </defs>

  <rect width="900" height="480" fill="#f8fafc"/>

  <text x="450" y="45" text-anchor="middle" font-size="22" font-weight="700" fill="#1e293b">LLM as a Judge Evaluation Flow</text>
  <text x="450" y="70" text-anchor="middle" font-size="14" fill="#64748b">Automated semantic grading pipeline using high-reasoning models</text>

  <g transform="translate(65, 130)">
    <g filter="url(#shadow)">
      <rect width="180" height="100" rx="12" fill="white" stroke="#c7d2fe" stroke-width="1.5"/>
      <rect width="180" height="35" rx="12" fill="#eff6ff"/>
      <rect y="25" width="180" height="10" fill="#eff6ff"/>
      <text x="90" y="23" text-anchor="middle" font-size="13" font-weight="700" fill="#4f46e5">YOUR LLM</text>
      <text x="90" y="65" text-anchor="middle" font-size="12" font-weight="600" fill="#1e293b">Agent / Application</text>
      <text x="90" y="82" text-anchor="middle" font-size="11" fill="#64748b">Generates response</text>
    </g>

    <line x1="180" y1="50" x2="230" y2="50" stroke="#94a3b8" stroke-width="2" marker-end="url(#arrowhead)"/>
    <text x="205" y="40" text-anchor="middle" font-size="10" font-weight="600" fill="#94a3b8">OUTPUT</text>

    <g transform="translate(230, -15)" filter="url(#shadow)">
      <rect width="240" height="130" rx="12" fill="white" stroke="#3b82f6" stroke-width="2"/>
      <rect width="240" height="40" rx="12" fill="#eff6ff"/>
      <rect y="30" width="240" height="10" fill="#eff6ff"/>
      <text x="120" y="26" text-anchor="middle" font-size="14" font-weight="700" fill="#2563eb">JUDGE LLM</text>
      <text x="120" y="70" text-anchor="middle" font-size="12" font-weight="600" fill="#1e293b">GPT-4o / Claude 3.5</text>
      <text x="120" y="90" text-anchor="middle" font-size="11" fill="#475569">Analyzes semantic logic</text>
      <text x="120" y="105" text-anchor="middle" font-size="11" fill="#475569">vs. specific criteria</text>
    </g>

    <line x1="470" y1="50" x2="520" y2="50" stroke="#94a3b8" stroke-width="2" marker-end="url(#arrowhead)"/>

    <g transform="translate(520, 0)" filter="url(#shadow)">
      <rect width="180" height="100" rx="12" fill="white" stroke="#e2e8f0" stroke-width="1.5"/>
      <text x="90" y="30" text-anchor="middle" font-size="13" font-weight="700" fill="#475569">SCORE</text>
      <text x="90" y="65" text-anchor="middle" font-size="28" font-weight="800" fill="#10b981">0.85</text>
      <text x="90" y="85" text-anchor="middle" font-size="10" fill="#94a3b8">(SCALE 0.0 - 1.0)</text>
    </g>
  </g>

  <g transform="translate(65, 270)">
    <g filter="url(#shadow)">
      <rect width="180" height="80" rx="12" fill="white" stroke="#fcd34d" stroke-width="1.5"/>
      <rect width="180" height="32" rx="12" fill="#fffbeb"/>
      <rect y="22" width="180" height="10" fill="#fffbeb"/>
      <text x="90" y="21" text-anchor="middle" font-size="13" font-weight="700" fill="#b45309">CRITERIA</text>
      <text x="90" y="55" text-anchor="middle" font-size="11" fill="#475569">Expected Reference /</text>
      <text x="90" y="70" text-anchor="middle" font-size="11" fill="#475569">Metric Rubric</text>
    </g>
    <path d="M 180 40 Q 350 40 350 15" fill="none" stroke="#94a3b8" stroke-width="2" marker-end="url(#arrowhead)"/>
  </g>

  <g transform="translate(585, 260)">
    <line x1="90" y1="-30" x2="90" y2="10" stroke="#94a3b8" stroke-width="2" marker-end="url(#arrowhead)"/>
    
    <g filter="url(#shadow)">
      <path d="M 90 20 L 170 60 L 90 100 L 10 60 Z" fill="white" stroke="#e2e8f0" stroke-width="2"/>
      <text x="90" y="58" text-anchor="middle" font-size="12" font-weight="700" fill="#1e293b">≥ 0.8</text>
      <text x="90" y="75" text-anchor="middle" font-size="10" fill="#64748b">THRESHOLD</text>
    </g>

    <g transform="translate(180, 40)">
      <line x1="-10" y1="20" x2="20" y2="20" stroke="#94a3b8" stroke-width="2" marker-end="url(#arrowhead)"/>
      <text x="5" y="12" text-anchor="middle" font-size="10" font-weight="700" fill="#059669">YES</text>
      <rect x="20" width="80" height="40" rx="8" fill="#ecfdf5" stroke="#86efac"/>
      <text x="60" y="25" text-anchor="middle" font-size="13" font-weight="800" fill="#047857">PASS</text>
    </g>

    <g transform="translate(-10, 110)">
      <path d="M 100 -10 L 100 20 L 70 20" fill="none" stroke="#94a3b8" stroke-width="2" marker-end="url(#arrowhead)"/>
      <text x="115" y="15" text-anchor="middle" font-size="10" font-weight="700" fill="#dc2626">NO</text>
      <rect width="80" height="40" rx="8" fill="#fef2f2" stroke="#fecaca"/>
      <text x="40" y="25" text-anchor="middle" font-size="13" font-weight="800" fill="#991b1b">FAIL</text>
    </g>
  </g>

  <text x="450" y="468" text-anchor="middle" font-size="11" fill="#94a3b8">FastEval Documentation • Judge Evaluation Standards • 2026</text>
</svg>
