<svg viewBox="0 0 940 620" xmlns="http://www.w3.org/2000/svg" font-family="Inter, system-ui, -apple-system, sans-serif">
  <defs>
    <filter id="shadow" x="-10%" y="-10%" width="120%" height="120%">
      <feDropShadow dx="0" dy="4" stdDeviation="6" flood-opacity="0.08"/>
    </filter>
    <marker id="arrowhead-indigo" markerWidth="10" markerHeight="7" refX="10" refY="3.5" orient="auto">
      <polygon points="0 0, 10 3.5, 0 7" fill="#6366f1"/>
    </marker>
  </defs>

  <rect width="940" height="620" fill="#f8fafc"/>

  <text x="470" y="45" text-anchor="middle" font-size="22" font-weight="700" fill="#1e293b">Metric Stack Composition</text>
  <text x="470" y="70" text-anchor="middle" font-size="14" fill="#64748b">Define standard metric sets once, apply across all related agent tests</text>

  <g font-size="12" font-weight="800" fill="#94a3b8" text-anchor="middle" letter-spacing="1">
    <text x="160" y="110">1. DEFINE STACK</text>
    <text x="490" y="110">2. APPLY TO TESTS</text>
    <text x="800" y="110">3. COMBINE STACKS</text>
  </g>

  <g transform="translate(50, 130)" filter="url(#shadow)">
    <rect width="220" height="240" rx="12" fill="white" stroke="#c7d2fe" stroke-width="1.5"/>
    <rect width="220" height="40" rx="12" fill="#eef2ff"/>
    <rect y="30" width="220" height="10" fill="#eef2ff"/>
    <text x="110" y="26" text-anchor="middle" font-size="13" font-weight="700" fill="#4f46e5">@fe.stack()</text>

    <g transform="translate(15, 55)">
      <rect width="190" height="32" rx="6" fill="#eff6ff" stroke="#3b82f6" stroke-width="1"/>
      <text x="95" y="21" text-anchor="middle" font-size="11" font-family="monospace" fill="#2563eb">@fe.correctness(0.8)</text>

      <rect y="42" width="190" height="32" rx="6" fill="#f5f3ff" stroke="#8b5cf6" stroke-width="1"/>
      <text x="95" y="63" text-anchor="middle" font-size="11" font-family="monospace" fill="#6d28d9">@fe.relevance(0.7)</text>

      <rect y="84" width="190" height="32" rx="6" fill="#ecfdf5" stroke="#10b981" stroke-width="1"/>
      <text x="95" y="105" text-anchor="middle" font-size="11" font-family="monospace" fill="#059669">@fe.toxicity(0.95)</text>
    </g>

    <rect x="15" y="180" width="190" height="40" rx="8" fill="#0f172a"/>
    <text x="110" y="205" text-anchor="middle" font-family="monospace" font-size="11" fill="#a78bfa">def quality_metrics():</text>
  </g>

  <g fill="none" stroke="#6366f1" stroke-width="2" stroke-dasharray="5 3">
    <path d="M 270 250 L 320 250"/>
    <path d="M 320 165 L 320 335"/>
    <path d="M 320 165 L 380 165" marker-end="url(#arrowhead-indigo)"/>
    <path d="M 320 250 L 380 250" marker-end="url(#arrowhead-indigo)"/>
    <path d="M 320 335 L 380 335" marker-end="url(#arrowhead-indigo)"/>
  </g>

  <rect x="285" y="235" width="70" height="30" rx="15" fill="#f8fafc" stroke="#6366f1" stroke-width="1.5"/>
  <text x="320" y="254" text-anchor="middle" font-size="9" font-weight="800" fill="#4f46e5">REUSE</text>

  <g transform="translate(380, 130)">
    <g filter="url(#shadow)">
      <rect width="220" height="70" rx="12" fill="white" stroke="#fde68a" stroke-width="1.5"/>
      <text x="20" y="28" font-size="12" font-weight="700" fill="#b45309">@quality_metrics</text>
      <text x="20" y="50" font-family="monospace" font-size="10" fill="#475569">def test_query_v1(): ...</text>
    </g>
    <g transform="translate(0, 85)" filter="url(#shadow)">
      <rect width="220" height="70" rx="12" fill="white" stroke="#fde68a" stroke-width="1.5"/>
      <text x="20" y="28" font-size="12" font-weight="700" fill="#b45309">@quality_metrics</text>
      <text x="20" y="50" font-family="monospace" font-size="10" fill="#475569">def test_query_v2(): ...</text>
    </g>
    <g transform="translate(0, 170)" filter="url(#shadow)">
      <rect width="220" height="70" rx="12" fill="white" stroke="#fde68a" stroke-width="1.5"/>
      <text x="20" y="28" font-size="12" font-weight="700" fill="#b45309">@quality_metrics</text>
      <text x="20" y="50" font-family="monospace" font-size="10" fill="#475569">def test_edge_case(): ...</text>
    </g>
  </g>

  <g transform="translate(670, 130)" filter="url(#shadow)">
    <rect width="220" height="240" rx="12" fill="white" stroke="#86efac" stroke-width="2"/>
    <rect width="220" height="40" rx="12" fill="#ecfdf5"/>
    <rect y="30" width="220" height="10" fill="#ecfdf5"/>
    <text x="110" y="26" text-anchor="middle" font-size="13" font-weight="700" fill="#047857">STACK COMBINATION</text>

    <g transform="translate(15, 60)">
      <rect width="85" height="30" rx="6" fill="#eef2ff" stroke="#c7d2fe"/>
      <text x="42.5" y="20" text-anchor="middle" font-size="10" font-weight="700" fill="#4f46e5">@rag_stack</text>

      <text x="95" y="22" text-anchor="middle" font-size="16" fill="#94a3b8">+</text>

      <rect x="105" width="85" height="30" rx="6" fill="#eef2ff" stroke="#c7d2fe"/>
      <text x="147.5" y="20" text-anchor="middle" font-size="10" font-weight="700" fill="#4f46e5">@quality</text>

      <text x="95" y="55" text-anchor="middle" font-size="18" fill="#94a3b8">=</text>

      <rect y="75" width="190" height="75" rx="8" fill="#f8fafc" stroke="#e2e8f0"/>
      <text x="95" y="95" text-anchor="middle" font-size="10" font-weight="700" fill="#475569">TOTAL METRIC SUITE:</text>
      <text x="95" y="115" text-anchor="middle" font-size="9" fill="#64748b">correctness + relevance +</text>
      <text x="95" y="128" text-anchor="middle" font-size="9" fill="#64748b">faithfulness + precision</text>
    </g>
  </g>

  <g transform="translate(50, 440)">
    <rect width="840" height="110" rx="12" fill="white" stroke="#e2e8f0" stroke-width="1.5" filter="url(#shadow)"/>
    <text x="420" y="30" text-anchor="middle" font-size="13" font-weight="700" fill="#1e293b">BENEFITS OF METRIC STACKING</text>

    <g transform="translate(40, 65)">
      <circle cx="0" cy="0" r="14" fill="#6366f1"/>
      <text y="5" text-anchor="middle" font-size="12" font-weight="700" fill="white">1</text>
      <text x="25" y="0" font-size="12" font-weight="600" fill="#475569">DRY Principle:</text>
      <text x="25" y="16" font-size="11" fill="#64748b">Define once, use everywhere</text>
    </g>
    <g transform="translate(320, 65)">
      <circle cx="0" cy="0" r="14" fill="#7c3aed"/>
      <text y="5" text-anchor="middle" font-size="12" font-weight="700" fill="white">2</text>
      <text x="25" y="0" font-size="12" font-weight="600" fill="#475569">Consistency:</text>
      <text x="25" y="16" font-size="11" fill="#64748b">Standardize quality across teams</text>
    </g>
    <g transform="translate(600, 65)">
      <circle cx="0" cy="0" r="14" fill="#10b981"/>
      <text y="5" text-anchor="middle" font-size="12" font-weight="700" fill="white">3</text>
      <text x="25" y="0" font-size="12" font-weight="600" fill="#475569">Composition:</text>
      <text x="25" y="16" font-size="11" fill="#64748b">Layer multiple stacks per test</text>
    </g>
  </g>

  <text x="470" y="595" text-anchor="middle" font-size="11" fill="#94a3b8">FastEval Documentation • Architectural Standards • 2026</text>
</svg>