<svg viewBox="0 0 900 520" xmlns="http://www.w3.org/2000/svg" font-family="Inter, system-ui, -apple-system, sans-serif">
  <defs>
    <filter id="shadow" x="-10%" y="-10%" width="120%" height="120%">
      <feDropShadow dx="0" dy="4" stdDeviation="6" flood-opacity="0.08"/>
    </filter>
    <marker id="arrowhead" markerWidth="10" markerHeight="7" refX="10" refY="3.5" orient="auto">
      <polygon points="0 0, 10 3.5, 0 7" fill="#64748b"/>
    </marker>
  </defs>

  <rect width="900" height="520" fill="#f8fafc"/>

  <text x="450" y="45" text-anchor="middle" font-size="22" font-weight="700" fill="#1e293b">Prompt Regression Testing Flow</text>
  <text x="450" y="70" text-anchor="middle" font-size="14" fill="#64748b">Benchmarking candidate prompt versions against production baselines</text>

  <g transform="translate(40, 100)">
    <g filter="url(#shadow)">
      <rect width="180" height="90" rx="12" fill="white" stroke="#cbd5e1" stroke-width="1.5"/>
      <rect width="180" height="32" rx="12" fill="#f1f5f9"/>
      <rect y="22" width="180" height="10" fill="#f1f5f9"/>
      <text x="90" y="21" text-anchor="middle" font-size="13" font-weight="700" fill="#475569">BASELINE (v1.0)</text>
      <text x="90" y="58" text-anchor="middle" font-size="12" fill="#475569">Production version</text>
      <text x="90" y="76" text-anchor="middle" font-size="11" fill="#94a3b8">Reference standard</text>
    </g>

    <g transform="translate(0, 110)" filter="url(#shadow)">
      <rect width="180" height="90" rx="12" fill="white" stroke="#c7d2fe" stroke-width="1.5"/>
      <rect width="180" height="32" rx="12" fill="#f5f3ff"/>
      <rect y="22" width="180" height="10" fill="#f5f3ff"/>
      <text x="90" y="21" text-anchor="middle" font-size="13" font-weight="700" fill="#6d28d9">CANDIDATE (v2.0)</text>
      <text x="90" y="58" text-anchor="middle" font-size="12" fill="#475569">Pull Request version</text>
      <text x="90" y="76" text-anchor="middle" font-size="11" fill="#94a3b8">Experimental change</text>
    </g>
  </g>

  <g transform="translate(270, 100)" filter="url(#shadow)">
    <rect width="200" height="200" rx="12" fill="white" stroke="#fcd34d" stroke-width="2"/>
    <rect width="200" height="40" rx="12" fill="#fffbeb"/>
    <rect y="30" width="200" height="10" fill="#fffbeb"/>
    <text x="100" y="26" text-anchor="middle" font-size="14" font-weight="700" fill="#b45309">GOLDEN DATASET</text>
    
    <g transform="translate(20, 65)" font-size="12" fill="#475569">
      <text y="0">• 100+ Curated cases</text>
      <text y="25">• Target behaviors</text>
      <text y="50">• Reference answers</text>
      <text y="75">• Min score gates</text>
    </g>

    <line x1="20" y1="160" x2="180" y2="160" stroke="#fef3c7" stroke-width="2"/>
    <text x="100" y="185" text-anchor="middle" font-size="11" font-weight="600" fill="#94a3b8">@fe.dataset("golden.csv")</text>
  </g>

  <g fill="none" stroke="#cbd5e1" stroke-width="2">
    <path d="M 220 145 L 270 145" marker-end="url(#arrowhead)"/>
    <path d="M 220 255 L 270 255" marker-end="url(#arrowhead)"/>
    <path d="M 470 200 L 520 200" marker-end="url(#arrowhead)"/>
  </g>

  <g transform="translate(520, 100)">
    <g filter="url(#shadow)">
      <rect width="180" height="200" rx="12" fill="white" stroke="#c7d2fe" stroke-width="2"/>
      <rect width="180" height="40" rx="12" fill="#eef2ff"/>
      <rect y="30" width="180" height="10" fill="#eef2ff"/>
      <text x="90" y="26" text-anchor="middle" font-size="13" font-weight="700" fill="#4f46e5">COMPARISON</text>
      
      <text x="90" y="65" text-anchor="middle" font-size="11" font-weight="600" fill="#94a3b8">DELTA CALCULATION</text>
      <text x="90" y="115" text-anchor="middle" font-size="32" font-weight="800" fill="#1e293b">Δ -0.03</text>
      
      <rect x="20" y="140" width="140" height="40" rx="6" fill="#f8fafc" stroke="#e2e8f0"/>
      <text x="90" y="158" text-anchor="middle" font-size="11" fill="#475569">Baseline: 0.85</text>
      <text x="90" y="173" text-anchor="middle" font-size="11" fill="#475569">Candidate: 0.82</text>
    </g>
  </g>

  <g transform="translate(740, 100)">
    <g>
      <path d="M -40 100 L -10 100" stroke="#cbd5e1" stroke-width="2" marker-end="url(#arrowhead)"/>
      
      <rect x="0" y="55" width="120" height="90" rx="8" fill="#ecfdf5" stroke="#10b981"/>
      <text x="60" y="85" text-anchor="middle" font-size="15" font-weight="800" fill="#047857">PASS</text>
      <text x="60" y="105" text-anchor="middle" font-size="10" font-weight="600" fill="#059669">Δ ≥ -0.05</text>
      <text x="60" y="125" text-anchor="middle" font-size="9" fill="#047857">Acceptable</text>

      <rect x="0" y="155" width="120" height="90" rx="8" fill="#fef2f2" stroke="#ef4444"/>
      <text x="60" y="185" text-anchor="middle" font-size="15" font-weight="800" fill="#991b1b">FAIL</text>
      <text x="60" y="205" text-anchor="middle" font-size="10" font-weight="600" fill="#b91c1c">Δ &lt; -0.05</text>
      <text x="60" y="225" text-anchor="middle" font-size="9" fill="#991b1b">Regression</text>
    </g>
  </g>

  <g transform="translate(40, 340)">
    <g filter="url(#shadow)">
      <rect width="390" height="110" rx="12" fill="white" stroke="#e2e8f0" stroke-width="1.5"/>
      <text x="20" y="30" font-size="13" font-weight="700" fill="#1e293b">CI/CD INTEGRATION</text>
      <g transform="translate(20, 50)" font-size="11" fill="#475569">
        <text y="0">1. Developer modifies prompt in feature branch</text>
        <text y="20">2. Github Actions triggers regression benchmark</text>
        <text y="40">3. Regression check blocks merge if score drops > 5%</text>
      </g>
    </g>

    <g transform="translate(430, 0)" filter="url(#shadow)">
      <rect width="390" height="110" rx="12" fill="white" stroke="#e2e8f0" stroke-width="1.5"/>
      <text x="20" y="30" font-size="13" font-weight="700" fill="#1e293b">MAINTENANCE STRATEGY</text>
      <g transform="translate(20, 50)" font-size="11" fill="#475569">
        <text y="0">• Nightly runs update the baseline score</text>
        <text y="20">• Periodic "Golden" data audits for drift</text>
        <text y="40">• Per-category tracking (e.g. Toxicity vs Accuracy)</text>
      </g>
    </g>
  </g>

  <text x="450" y="505" text-anchor="middle" font-size="11" fill="#94a3b8">FastEval Documentation • Automated Regression Standards • 2026</text>
</svg>
