<svg viewBox="0 0 900 480" xmlns="http://www.w3.org/2000/svg" font-family="Inter, system-ui, -apple-system, sans-serif">
  <defs>
    <filter id="shadow" x="-10%" y="-10%" width="120%" height="120%">
      <feDropShadow dx="0" dy="4" stdDeviation="6" flood-opacity="0.08"/>
    </filter>
  </defs>

  <rect width="900" height="480" fill="#f8fafc"/>

  <text x="450" y="45" text-anchor="middle" font-size="22" font-weight="700" fill="#1e293b">Score Range &amp; Threshold Selection</text>
  <text x="450" y="70" text-anchor="middle" font-size="14" fill="#64748b">Calibrating semantic metrics to binary Pass/Fail engineering gates</text>

  <g transform="translate(50, 100)">
    <rect width="240" height="50" rx="8" fill="#ef4444"/> <rect x="240" width="320" height="50" fill="#f59e0b"/> <rect x="560" width="240" height="50" rx="8" fill="#10b981"/> <rect x="230" width="20" height="50" fill="#f59e0b"/>
    <rect x="550" width="20" height="50" fill="#10b981"/>

    <g font-size="12" font-weight="800" fill="white" text-anchor="middle">
      <text x="120" y="24">POOR</text>
      <text x="120" y="38" font-size="10" font-weight="400" opacity="0.9">0.0 - 0.3</text>
      
      <text x="400" y="24">MODERATE</text>
      <text x="400" y="38" font-size="10" font-weight="400" opacity="0.9">0.3 - 0.7</text>
      
      <text x="680" y="24">GOOD</text>
      <text x="680" y="38" font-size="10" font-weight="400" opacity="0.9">0.7 - 1.0</text>
    </g>

    <g font-size="11" font-weight="600" fill="#94a3b8" text-anchor="middle">
      <text x="0" y="70">0.0</text>
      <text x="240" y="70">0.3</text>
      <text x="400" y="70">0.5</text>
      <text x="560" y="70">0.7</text>
      <text x="800" y="70">1.0</text>
    </g>

    <g transform="translate(640, -25)">
      <rect x="-50" width="100" height="24" rx="4" fill="#0f172a"/>
      <text y="16" text-anchor="middle" font-size="10" font-weight="700" fill="white">GATED: 0.8</text>
      <path d="M 0 24 L 0 85" stroke="#0f172a" stroke-width="2" stroke-dasharray="4 2"/>
      <polygon points="-6,85 6,85 0,95" fill="#0f172a"/>
    </g>
  </g>

  <g transform="translate(50, 210)">
    <g filter="url(#shadow)">
      <rect width="240" height="110" rx="12" fill="white" stroke="#fecaca" stroke-width="1.5"/>
      <text x="20" y="30" font-size="13" font-weight="700" fill="#dc2626">BELOW THRESHOLD</text>
      <g transform="translate(20, 50)" font-size="12" fill="#475569">
        <text y="0">• Wrong answer / Hallucination</text>
        <text y="20">• Off-topic response</text>
        <text y="40">• Safety violation (Toxicity)</text>
      </g>
    </g>

    <g transform="translate(280, 0)" filter="url(#shadow)">
      <rect width="240" height="110" rx="12" fill="white" stroke="#fde68a" stroke-width="1.5"/>
      <text x="20" y="30" font-size="13" font-weight="700" fill="#b45309">NEEDS REVIEW</text>
      <g transform="translate(20, 50)" font-size="12" fill="#475569">
        <text y="0">• Partially correct info</text>
        <text y="20">• Missing specific details</text>
        <text y="40">• Minor formatting issues</text>
      </g>
    </g>

    <g transform="translate(560, 0)" filter="url(#shadow)">
      <rect width="240" height="110" rx="12" fill="white" stroke="#86efac" stroke-width="1.5"/>
      <text x="20" y="30" font-size="13" font-weight="700" fill="#059669">PASSES THRESHOLD</text>
      <g transform="translate(20, 50)" font-size="12" fill="#475569">
        <text y="0">• Semantic match to reference</text>
        <text y="20">• Complete and relevant</text>
        <text y="40">• Adheres to safety policy</text>
      </g>
    </g>
  </g>

  <g transform="translate(50, 360)">
    <text x="400" y="0" text-anchor="middle" font-size="13" font-weight="700" fill="#1e293b" letter-spacing="0.5">RECOMMENDED GATES BY USE CASE</text>
    
    <g transform="translate(0, 20)">
      <rect width="145" height="32" rx="16" fill="#fef2f2" stroke="#fecaca"/>
      <text x="72.5" y="21" text-anchor="middle" font-size="11" font-weight="700" fill="#991b1b">SAFETY: 0.95+</text>
      
      <rect x="155" width="165" height="32" rx="16" fill="#eff6ff" stroke="#c7d2fe"/>
      <text x="237.5" y="21" text-anchor="middle" font-size="11" font-weight="700" fill="#1d4ed8">ACCURACY: 0.80+</text>
      
      <rect x="330" width="180" height="32" rx="16" fill="#f5f3ff" stroke="#ddd6fe"/>
      <text x="420" y="21" text-anchor="middle" font-size="11" font-weight="700" fill="#6d28d9">GROUNDING: 0.85+</text>
      
      <rect x="520" width="165" height="32" rx="16" fill="#fffbeb" stroke="#fde68a"/>
      <text x="602.5" y="21" text-anchor="middle" font-size="11" font-weight="700" fill="#b45309">RELEVANCE: 0.70+</text>
      
      <rect x="695" width="105" height="32" rx="16" fill="#ecfdf5" stroke="#86efac"/>
      <text x="747.5" y="21" text-anchor="middle" font-size="11" font-weight="700" fill="#047857">STYLE: 0.60+</text>
    </g>
  </g>

  <text x="450" y="468" text-anchor="middle" font-size="11" fill="#94a3b8">FastEval Documentation • Architectural Scoring Standards • 2026</text>
</svg>
