<?xml version="1.0" encoding="UTF-8"?>
<svg viewBox="0 0 800 380" xmlns="http://www.w3.org/2000/svg" font-family="system-ui, -apple-system, sans-serif">
  <defs>
    <linearGradient id="ttfQueryGrad" x1="0%" y1="0%" x2="100%" y2="100%">
      <stop offset="0%" style="stop-color:#f59e0b"/>
      <stop offset="100%" style="stop-color:#d97706"/>
    </linearGradient>
    <linearGradient id="ttfAgentGrad" x1="0%" y1="0%" x2="100%" y2="100%">
      <stop offset="0%" style="stop-color:#8b5cf6"/>
      <stop offset="100%" style="stop-color:#6d28d9"/>
    </linearGradient>
    <linearGradient id="ttfToolGrad" x1="0%" y1="0%" x2="100%" y2="100%">
      <stop offset="0%" style="stop-color:#3b82f6"/>
      <stop offset="100%" style="stop-color:#1d4ed8"/>
    </linearGradient>
    <linearGradient id="ttfExpectedGrad" x1="0%" y1="0%" x2="100%" y2="100%">
      <stop offset="0%" style="stop-color:#10b981"/>
      <stop offset="100%" style="stop-color:#059669"/>
    </linearGradient>
    <linearGradient id="ttfMatchGrad" x1="0%" y1="0%" x2="100%" y2="100%">
      <stop offset="0%" style="stop-color:#6366f1"/>
      <stop offset="100%" style="stop-color:#4f46e5"/>
    </linearGradient>
    <filter id="ttfShadow" x="-20%" y="-20%" width="140%" height="140%">
      <feDropShadow dx="0" dy="4" stdDeviation="5" flood-opacity="0.12"/>
    </filter>
    <marker id="ttfArrow" markerWidth="10" markerHeight="7" refX="9" refY="3.5" orient="auto">
      <polygon points="0 0, 10 3.5, 0 7" fill="#64748b"/>
    </marker>
  </defs>
  
  <!-- Background -->
  <rect width="800" height="380" fill="#f8fafc"/>
  
  <!-- Title -->
  <text x="400" y="32" text-anchor="middle" font-size="22" font-weight="700" fill="#1e293b">Tool Trajectory Evaluation</text>
  <text x="400" y="52" text-anchor="middle" font-size="12" fill="#64748b">How tool_call_accuracy matches actual vs expected tools</text>
  
  <!-- Step 1: Query -->
  <g filter="url(#ttfShadow)">
    <rect x="30" y="75" width="120" height="60" rx="10" fill="url(#ttfQueryGrad)"/>
    <text x="90" y="100" text-anchor="middle" font-size="11" font-weight="600" fill="white">User Query</text>
    <text x="90" y="118" text-anchor="middle" font-size="9" fill="rgba(255,255,255,0.85)">Book flight to NYC</text>
  </g>
  
  <!-- Arrow 1 -->
  <line x1="150" y1="105" x2="185" y2="105" stroke="#64748b" stroke-width="2" marker-end="url(#ttfArrow)"/>
  
  <!-- Step 2: Agent -->
  <g filter="url(#ttfShadow)">
    <rect x="195" y="75" width="120" height="60" rx="10" fill="url(#ttfAgentGrad)"/>
    <text x="255" y="100" text-anchor="middle" font-size="11" font-weight="600" fill="white">Agent</text>
    <text x="255" y="118" text-anchor="middle" font-size="9" fill="rgba(255,255,255,0.85)">Processes and decides</text>
  </g>
  
  <!-- Arrow 2 -->
  <line x1="315" y1="105" x2="350" y2="105" stroke="#64748b" stroke-width="2" marker-end="url(#ttfArrow)"/>
  
  <!-- Step 3: Tool Calls (actual) -->
  <g filter="url(#ttfShadow)">
    <rect x="360" y="70" width="180" height="85" rx="10" fill="white" stroke="#3b82f6" stroke-width="2"/>
    <rect x="360" y="70" width="180" height="30" rx="10" fill="url(#ttfToolGrad)"/>
    <rect x="360" y="88" width="180" height="12" fill="url(#ttfToolGrad)"/>
    <text x="450" y="92" text-anchor="middle" font-size="11" font-weight="600" fill="white">Actual Tool Calls</text>
    
    <rect x="375" y="110" width="150" height="18" rx="4" fill="#dbeafe"/>
    <text x="450" y="123" text-anchor="middle" font-size="9" fill="#1d4ed8">1. search_flights</text>
    
    <rect x="375" y="132" width="150" height="18" rx="4" fill="#dbeafe"/>
    <text x="450" y="145" text-anchor="middle" font-size="9" fill="#1d4ed8">2. book_flight</text>
  </g>
  
  <!-- Arrow down from actual -->
  <line x1="450" y1="155" x2="450" y2="190" stroke="#64748b" stroke-width="2" marker-end="url(#ttfArrow)"/>
  
  <!-- Step 4: Expected Tools -->
  <g filter="url(#ttfShadow)">
    <rect x="560" y="70" width="180" height="85" rx="10" fill="white" stroke="#10b981" stroke-width="2"/>
    <rect x="560" y="70" width="180" height="30" rx="10" fill="url(#ttfExpectedGrad)"/>
    <rect x="560" y="88" width="180" height="12" fill="url(#ttfExpectedGrad)"/>
    <text x="650" y="92" text-anchor="middle" font-size="11" font-weight="600" fill="white">Expected Tools</text>
    
    <rect x="575" y="110" width="150" height="18" rx="4" fill="#d1fae5"/>
    <text x="650" y="123" text-anchor="middle" font-size="9" fill="#059669">ExpectedTool(search_*)</text>
    
    <rect x="575" y="132" width="150" height="18" rx="4" fill="#d1fae5"/>
    <text x="650" y="145" text-anchor="middle" font-size="9" fill="#059669">ExpectedTool(book_flight)</text>
  </g>
  
  <!-- Arrow down from expected -->
  <line x1="650" y1="155" x2="650" y2="190" stroke="#64748b" stroke-width="2"/>
  <line x1="650" y1="190" x2="550" y2="220" stroke="#64748b" stroke-width="2" marker-end="url(#ttfArrow)"/>
  
  <!-- Step 5: Matching -->
  <g filter="url(#ttfShadow)">
    <rect x="360" y="200" width="180" height="80" rx="10" fill="url(#ttfMatchGrad)"/>
    <text x="450" y="225" text-anchor="middle" font-size="12" font-weight="600" fill="white">Compare and Match</text>
    <text x="450" y="245" text-anchor="middle" font-size="10" fill="rgba(255,255,255,0.9)">Wildcards supported</text>
    <text x="450" y="265" text-anchor="middle" font-size="9" fill="rgba(255,255,255,0.75)">search_flights matches search_*</text>
  </g>
  
  <!-- Arrow to Score -->
  <line x1="450" y1="280" x2="450" y2="305" stroke="#64748b" stroke-width="2" marker-end="url(#ttfArrow)"/>
  
  <!-- Step 6: Score Calculation -->
  <g filter="url(#ttfShadow)">
    <rect x="300" y="315" width="300" height="55" rx="10" fill="white" stroke="#6366f1" stroke-width="2"/>
    <text x="450" y="340" text-anchor="middle" font-size="13" font-weight="700" fill="#4f46e5">Score = matched / max(expected, actual)</text>
    <text x="450" y="358" text-anchor="middle" font-size="11" fill="#64748b">2 / max(2, 2) = 1.0 Pass</text>
  </g>
  
  <!-- Formula sidebar -->
  <g transform="translate(30, 175)">
    <rect x="0" y="0" width="180" height="125" rx="8" fill="#f1f5f9" stroke="#e2e8f0"/>
    <text x="90" y="20" text-anchor="middle" font-size="11" font-weight="600" fill="#475569">Score Scenarios</text>
    
    <text x="10" y="42" font-size="9" fill="#059669">[OK] All matched:</text>
    <text x="115" y="42" font-size="9" fill="#475569">2/2 = 1.0</text>
    
    <text x="10" y="60" font-size="9" fill="#f59e0b">[~] Partial match:</text>
    <text x="115" y="60" font-size="9" fill="#475569">1/2 = 0.5</text>
    
    <text x="10" y="78" font-size="9" fill="#dc2626">[X] Extra calls:</text>
    <text x="115" y="78" font-size="9" fill="#475569">2/3 = 0.67</text>
    
    <text x="10" y="100" font-size="9" fill="#64748b" font-style="italic">Use ignore_extra=True</text>
    <text x="10" y="115" font-size="9" fill="#64748b" font-style="italic">to not penalize extras</text>
  </g>
  
  <!-- Features list -->
  <g transform="translate(620, 290)">
    <rect x="0" y="0" width="150" height="75" rx="8" fill="#ede9fe" stroke="#8b5cf6"/>
    <text x="75" y="18" text-anchor="middle" font-size="10" font-weight="600" fill="#6d28d9">Features</text>
    <text x="10" y="35" font-size="9" fill="#475569">- Wildcard patterns</text>
    <text x="10" y="50" font-size="9" fill="#475569">- Optional tools</text>
    <text x="10" y="65" font-size="9" fill="#475569">- Argument checking</text>
  </g>
  
  <!-- Footer -->
  <text x="400" y="375" text-anchor="middle" font-size="11" fill="#94a3b8">fasteval - tool_call_accuracy Metric</text>
</svg>
