<svg viewBox="0 0 900 550" xmlns="http://www.w3.org/2000/svg" font-family="Inter, system-ui, -apple-system, sans-serif">
  <defs>
    <filter id="shadow" x="-10%" y="-10%" width="120%" height="120%">
      <feDropShadow dx="0" dy="4" stdDeviation="6" flood-opacity="0.08"/>
    </filter>
    <marker id="arrowhead" markerWidth="10" markerHeight="7" refX="10" refY="3.5" orient="auto">
      <polygon points="0 0, 10 3.5, 0 7" fill="#64748b"/>
    </marker>
  </defs>

  <rect width="900" height="550" fill="#f8fafc"/>

  <text x="450" y="45" text-anchor="middle" font-size="22" font-weight="700" fill="#1e293b">Tool Sequence Matching (LCS)</text>
  <text x="450" y="70" text-anchor="middle" font-size="14" fill="#64748b">Evaluating multi-step agent logic using the Longest Common Subsequence algorithm</text>

  <g transform="translate(50, 110)">
    <text x="0" y="-10" font-size="13" font-weight="700" fill="#047857">EXPECTED SEQUENCE (Reference)</text>
    <g filter="url(#shadow)">
      <rect width="800" height="60" rx="12" fill="white" stroke="#10b981" stroke-width="1.5"/>
      <g transform="translate(30, 15)">
        <rect id="e1" width="100" height="30" rx="6" fill="#10b981"/>
        <text x="50" y="20" text-anchor="middle" font-size="12" font-weight="800" fill="white">VALIDATE</text>
        <line x1="105" y1="15" x2="145" y2="15" stroke="#10b981" stroke-width="2" marker-end="url(#arrowhead)"/>

        <rect id="e2" x="150" width="100" height="30" rx="6" fill="#10b981"/>
        <text x="200" y="20" text-anchor="middle" font-size="12" font-weight="800" fill="white">CHARGE</text>
        <line x1="255" y1="15" x2="295" y2="15" stroke="#10b981" stroke-width="2" marker-end="url(#arrowhead)"/>

        <rect id="e3" x="300" width="100" height="30" rx="6" fill="#10b981"/>
        <text x="350" y="20" text-anchor="middle" font-size="12" font-weight="800" fill="white">CONFIRM</text>
      </g>
    </g>
  </g>

  <g transform="translate(50, 230)">
    <text x="0" y="-10" font-size="13" font-weight="700" fill="#1d4ed8">ACTUAL SEQUENCE (Model Output)</text>
    <g filter="url(#shadow)">
      <rect width="800" height="60" rx="12" fill="white" stroke="#3b82f6" stroke-width="1.5"/>
      <g transform="translate(30, 15)">
        <rect id="a1" width="100" height="30" rx="6" fill="#2563eb"/>
        <text x="50" y="20" text-anchor="middle" font-size="12" font-weight="800" fill="white">VALIDATE</text>
        <line x1="105" y1="15" x2="130" y2="15" stroke="#3b82f6" stroke-width="2" marker-end="url(#arrowhead)"/>

        <rect x="135" width="80" height="30" rx="6" fill="#fffbeb" stroke="#f59e0b" stroke-width="1.5"/>
        <text x="175" y="20" text-anchor="middle" font-size="10" font-weight="700" fill="#b45309">LOG_CALL</text>
        <line x1="220" y1="15" x2="245" y2="15" stroke="#3b82f6" stroke-width="2" marker-end="url(#arrowhead)"/>

        <rect id="a2" x="250" width="100" height="30" rx="6" fill="#2563eb"/>
        <text x="300" y="20" text-anchor="middle" font-size="12" font-weight="800" fill="white">CHARGE</text>
        <line x1="355" y1="15" x2="380" y2="15" stroke="#3b82f6" stroke-width="2" marker-end="url(#arrowhead)"/>

        <rect id="a3" x="385" width="100" height="30" rx="6" fill="#2563eb"/>
        <text x="435" y="20" text-anchor="middle" font-size="12" font-weight="800" fill="white">CONFIRM</text>
      </g>
    </g>
  </g>

  <g stroke="#6366f1" stroke-width="2.5" stroke-dasharray="6 4" opacity="0.5" fill="none">
    <path d="M 130 170 L 130 230"/>
    <path d="M 280 170 C 280 200, 380 200, 380 230"/>
    <path d="M 430 170 C 430 210, 515 210, 515 230"/>
  </g>

  <rect x="195" y="295" width="125" height="22" rx="11" fill="#fff7ed" stroke="#fb923c" stroke-width="1"/>
  <text x="257.5" y="310" text-anchor="middle" font-size="10" font-weight="800" fill="#9a3412">EXTRA STEP (Skipped)</text>

  <g transform="translate(50, 360)">
    <g filter="url(#shadow)">
      <rect width="380" height="120" rx="12" fill="white" stroke="#c7d2fe" stroke-width="1.5"/>
      <rect width="380" height="35" rx="12" fill="#eef2ff"/>
      <rect y="25" width="380" height="10" fill="#eef2ff"/>
      <text x="190" y="23" text-anchor="middle" font-size="13" font-weight="700" fill="#4f46e5">SCORE CALCULATION</text>
      <text x="190" y="65" text-anchor="middle" font-size="11" font-weight="700" fill="#64748b">LCS LENGTH / MAX(EXPECTED, ACTUAL)</text>
      <text x="190" y="102" text-anchor="middle" font-size="28" font-weight="800" fill="#1e293b">3 / 4 = 0.75</text>
    </g>

    <g transform="translate(420, 0)" filter="url(#shadow)">
      <rect width="380" height="120" rx="12" fill="white" stroke="#e2e8f0" stroke-width="1.5"/>
      <rect width="380" height="35" rx="12" fill="#f8fafc"/>
      <rect y="25" width="380" height="10" fill="#f8fafc"/>
      <text x="190" y="23" text-anchor="middle" font-size="13" font-weight="700" fill="#475569">MATCHING MODES</text>
      <g transform="translate(20, 52)">
        <rect width="165" height="48" rx="8" fill="#ecfdf5" stroke="#10b981"/>
        <text x="82.5" y="20" text-anchor="middle" font-size="11" font-weight="800" fill="#047857">NON-STRICT (Default)</text>
        <text x="82.5" y="36" text-anchor="middle" font-size="10" fill="#065f46">Partial credit for ordering</text>
      </g>
      <g transform="translate(195, 52)">
        <rect width="165" height="48" rx="8" fill="#fef2f2" stroke="#ef4444"/>
        <text x="82.5" y="20" text-anchor="middle" font-size="11" font-weight="800" fill="#991b1b">STRICT MODE</text>
        <text x="82.5" y="36" text-anchor="middle" font-size="10" fill="#991b1b">Binary 1.0 or 0.0 only</text>
      </g>
    </g>
  </g>

  <text x="450" y="538" text-anchor="middle" font-size="11" fill="#94a3b8">FastEval Documentation • tool_sequence Metric (LCS) • 2026 Standards</text>
</svg>