<svg viewBox="0 0 900 580" xmlns="http://www.w3.org/2000/svg" font-family="Inter, system-ui, -apple-system, sans-serif">
  <defs>
    <filter id="shadow" x="-10%" y="-10%" width="120%" height="120%">
      <feDropShadow dx="0" dy="4" stdDeviation="6" flood-opacity="0.08"/>
    </filter>
    <marker id="arrowhead" markerWidth="10" markerHeight="7" refX="10" refY="3.5" orient="auto">
      <polygon points="0 0, 10 3.5, 0 7" fill="#64748b"/>
    </marker>
    <marker id="arrowhead-green" markerWidth="10" markerHeight="7" refX="10" refY="3.5" orient="auto">
      <polygon points="0 0, 10 3.5, 0 7" fill="#10b981"/>
    </marker>
  </defs>

  <rect width="900" height="580" fill="#f8fafc"/>

  <text x="450" y="45" text-anchor="middle" font-size="22" font-weight="700" fill="#1e293b">Trace Evaluation Pipeline</text>
  <text x="450" y="70" text-anchor="middle" font-size="14" fill="#64748b">Closing the loop between real-world interactions and engineering quality gates</text>

  <g transform="translate(70, 110)">
    <g filter="url(#shadow)">
      <rect width="160" height="90" rx="12" fill="white" stroke="#bbf7d0" stroke-width="1.5"/>
      <rect width="160" height="32" rx="12" fill="#ecfdf5"/>
      <rect y="22" width="160" height="10" fill="#ecfdf5"/>
      <text x="80" y="21" text-anchor="middle" font-size="13" font-weight="700" fill="#059669">1. PRODUCTION</text>
      <text x="80" y="58" text-anchor="middle" font-size="12" font-weight="600" fill="#334155">Real User</text>
      <text x="80" y="76" text-anchor="middle" font-size="11" fill="#64748b">Interactions</text>
    </g>

    <line x1="160" y1="45" x2="200" y2="45" stroke="#94a3b8" stroke-width="2" marker-end="url(#arrowhead)"/>

    <g transform="translate(200, 0)" filter="url(#shadow)">
      <rect width="160" height="90" rx="12" fill="white" stroke="#cbd5e1" stroke-width="1.5"/>
      <rect width="160" height="32" rx="12" fill="#eff6ff"/>
      <rect y="22" width="160" height="10" fill="#eff6ff"/>
      <text x="80" y="21" text-anchor="middle" font-size="13" font-weight="700" fill="#1d4ed8">2. LOGGING</text>
      <text x="80" y="58" text-anchor="middle" font-size="12" font-weight="600" fill="#334155">Store Traces</text>
      <text x="80" y="76" text-anchor="middle" font-size="11" fill="#64748b">Langfuse / DB</text>
    </g>

    <line x1="360" y1="45" x2="400" y2="45" stroke="#94a3b8" stroke-width="2" marker-end="url(#arrowhead)"/>

    <g transform="translate(400, 0)" filter="url(#shadow)">
      <rect width="160" height="90" rx="12" fill="white" stroke="#ddd6fe" stroke-width="1.5"/>
      <rect width="160" height="32" rx="12" fill="#f5f3ff"/>
      <rect y="22" width="160" height="10" fill="#f5f3ff"/>
      <text x="80" y="21" text-anchor="middle" font-size="13" font-weight="700" fill="#7c3aed">3. SAMPLING</text>
      <text x="80" y="58" text-anchor="middle" font-size="12" font-weight="600" fill="#334155">100-1k Traces</text>
      <text x="80" y="76" text-anchor="middle" font-size="11" fill="#64748b">Daily / Weekly</text>
    </g>

    <line x1="560" y1="45" x2="600" y2="45" stroke="#94a3b8" stroke-width="2" marker-end="url(#arrowhead)"/>

    <g transform="translate(600, 0)" filter="url(#shadow)">
      <rect width="160" height="90" rx="12" fill="white" stroke="#fcd34d" stroke-width="1.5"/>
      <rect width="160" height="32" rx="12" fill="#fffbeb"/>
      <rect y="22" width="160" height="10" fill="#fffbeb"/>
      <text x="80" y="21" text-anchor="middle" font-size="13" font-weight="700" fill="#b45309">4. EVALUATE</text>
      <text x="80" y="58" text-anchor="middle" font-size="12" font-weight="600" fill="#334155">Run Metrics</text>
      <text x="80" y="76" text-anchor="middle" font-size="11" fill="#64748b">@fe.traces()</text>
    </g>
  </g>

  <path d="M 750 200 L 750 240 L 640 240 L 640 270" fill="none" stroke="#cbd5e1" stroke-width="2" marker-end="url(#arrowhead)"/>

  <g transform="translate(70, 270)">
    <g filter="url(#shadow)">
      <rect width="200" height="130" rx="12" fill="#f1f5f9" stroke="#cbd5e1" stroke-width="1.5"/>
      <text x="20" y="30" font-size="13" font-weight="700" fill="#475569">SCHEDULING &amp; OPS</text>
      <g transform="translate(20, 55)" font-size="11" fill="#64748b">
        <text y="0" font-weight="600" fill="#334155">Nightly CI/CD Job:</text>
        <text x="10" y="20" font-family="monospace" fill="#0f172a">cron: '0 2 * * *'</text>
        <text y="45" font-weight="600" fill="#334155">Alerting:</text>
        <text x="10" y="65">Slack / PagerDuty integration</text>
      </g>
    </g>

    <g transform="translate(380, 0)" filter="url(#shadow)">
      <rect width="380" height="130" rx="12" fill="white" stroke="#6366f1" stroke-width="2"/>
      <rect width="380" height="35" rx="12" fill="#eef2ff"/>
      <rect y="25" width="380" height="10" fill="#eef2ff"/>
      <text x="190" y="23" text-anchor="middle" font-size="13" font-weight="700" fill="#4f46e5">5. INSIGHTS &amp; ACTIONS</text>
      <g transform="translate(20, 60)" font-size="11" fill="#475569">
        <text y="0">• Detect Quality Drift early</text>
        <text y="20">• Identify new Hallucinations</text>
        <text y="40">• Find Edge Cases for Dataset</text>
        <text x="185" y="0">• Monitor Safety compliance</text>
        <text x="185" y="20">• Track Performance trends</text>
        <text x="185" y="40">• Auto-ticket for Failure</text>
      </g>
    </g>
  </g>

  <path d="M 450 335 C 120 235, 150 250, 150 205" fill="none" stroke="#10b981" stroke-width="2.5" stroke-dasharray="8 4" marker-end="url(#arrowhead-green)"/>

  <g transform="translate(200, 435)" filter="url(#shadow)">
    <rect width="500" height="85" rx="12" fill="#0f172a"/>
    <g transform="translate(25, 32)" font-family="Inter, monospace" font-size="12">
      <text y="0" fill="#a78bfa">@fe.faithfulness<tspan fill="#fbbf24">(threshold=0.8)</tspan></text>
      <text y="22" fill="#a78bfa">@fe.traces()</text>
      <text y="44" fill="#60a5fa">def <tspan fill="#f8fafc">evaluate_production(): ...</tspan></text>
    </g>
  </g>

  <text x="450" y="565" text-anchor="middle" font-size="11" fill="#94a3b8">fasteval • Production Monitoring Standards • 2026</text>
</svg>